<svg width="52" height="52" viewBox="0 0 52 52" fill="none" xmlns="http://www.w3.org/2000/svg">
<rect width="51.4521" height="51.4521" rx="10" transform="matrix(-1 0 0 1 51.4521 0.22998)" fill="#C4C4C4"/>
<g clip-path="url(#clip0_1_258)">
<path d="M34.9761 17.9561H28.9761C28.5641 17.9561 27.9871 18.1951 27.6961 18.4861L20.2571 25.9251C20.1168 26.066 20.0381 26.2567 20.0381 26.4556C20.0381 26.6544 20.1168 26.8451 20.2571 26.9861L26.6961 33.4251C26.837 33.5653 27.0278 33.6441 27.2266 33.6441C27.4254 33.6441 27.6162 33.5653 27.7571 33.4251L35.1961 25.9861C35.4881 25.6941 35.7261 25.1181 35.7261 24.7061V18.7061C35.7256 18.5073 35.6464 18.3168 35.5058 18.1763C35.3653 18.0358 35.1749 17.9566 34.9761 17.9561V17.9561ZM31.2261 23.9561C31.0291 23.956 30.8339 23.9171 30.6519 23.8416C30.4699 23.7662 30.3045 23.6556 30.1652 23.5162C30.0259 23.3768 29.9155 23.2114 29.8401 23.0293C29.7648 22.8472 29.726 22.6521 29.7261 22.4551C29.7262 22.258 29.765 22.0629 29.8405 21.8809C29.916 21.6989 30.0266 21.5335 30.1659 21.3942C30.3053 21.2549 30.4708 21.1444 30.6528 21.0691C30.8349 20.9937 31.0301 20.955 31.2271 20.9551C31.6251 20.9552 32.0067 21.1134 32.288 21.3949C32.5693 21.6764 32.7272 22.0581 32.7271 22.4561C32.727 22.854 32.5688 23.2356 32.2873 23.5169C32.0058 23.7982 31.6241 23.9562 31.2261 23.9561Z" fill="white"/>
<path d="M17.7261 26.4561L26.2261 17.9561H24.9761C24.5641 17.9561 23.9871 18.1951 23.6961 18.4861L16.2571 25.9251C16.1168 26.066 16.0381 26.2567 16.0381 26.4556C16.0381 26.6544 16.1168 26.8451 16.2571 26.9861L22.6961 33.4251C22.837 33.5653 23.0278 33.6441 23.2266 33.6441C23.4254 33.6441 23.6162 33.5653 23.7571 33.4251L24.2271 32.9551L17.7271 26.4551L17.7261 26.4561Z" fill="white"/>
</g>
<defs>
<clipPath id="clip0_1_258">
<rect width="20" height="16" fill="white" transform="translate(15.7261 17.9561)"/>
</clipPath>
</defs>
</svg>