<svg width="52" height="52" viewBox="0 0 52 52" fill="none" xmlns="http://www.w3.org/2000/svg">
<rect width="51.4521" height="51.4521" rx="10" transform="matrix(-1 0 0 1 51.4521 0.312988)" fill="#C4C4C4"/>
<path d="M21.0674 12.8454L22.3227 12.4441C23.4999 12.0684 24.7575 12.6763 25.2615 13.8639L26.2649 16.2299C26.7012 17.2601 26.4585 18.4723 25.6652 19.2259L23.4544 21.3236C23.5909 22.5789 24.0132 23.8144 24.7202 25.0301C25.3916 26.2063 26.2921 27.2357 27.3685 28.0576L30.0239 27.1709C31.0295 26.8361 32.1262 27.2223 32.7422 28.1288L34.1807 30.2404C34.8982 31.2951 34.7687 32.7488 33.8785 33.6424L32.9254 34.6003C31.9757 35.5534 30.6189 35.8999 29.3647 35.5079C26.4014 34.5839 23.6795 31.8411 21.1945 27.2794C18.706 22.7108 17.8275 18.8328 18.5602 15.6501C18.8682 14.3108 19.8214 13.2433 21.0674 12.8454Z" fill="white"/>
</svg>