<svg width="52" height="52" viewBox="0 0 52 52" fill="none" xmlns="http://www.w3.org/2000/svg">
<rect width="51.4521" height="51.4521" rx="10" transform="matrix(-1 0 0 1 51.4521 0.146973)" fill="#C4C4C4"/>
<path d="M25.726 38.0594C27.4359 36.6009 29.0209 35.0019 30.4643 33.2792C32.6303 30.6921 35.2025 26.8392 35.2025 23.1678C35.2035 21.2927 34.6481 19.4595 33.6068 17.9002C32.5655 16.3409 31.085 15.1256 29.3527 14.408C27.6204 13.6904 25.7142 13.5028 23.8752 13.869C22.0363 14.2352 20.3473 15.1387 19.0221 16.4652C18.1398 17.3436 17.4404 18.3883 16.9645 19.5388C16.4886 20.6893 16.2456 21.9227 16.2495 23.1678C16.2495 26.8392 18.8217 30.6921 20.9878 33.2792C22.4312 35.0019 24.0161 36.6009 25.726 38.0594ZM25.726 19.1064C26.8032 19.1064 27.8362 19.5343 28.5978 20.296C29.3595 21.0576 29.7874 22.0906 29.7874 23.1678C29.7874 24.2449 29.3595 25.2779 28.5978 26.0396C27.8362 26.8012 26.8032 27.2291 25.726 27.2291C24.6489 27.2291 23.6159 26.8012 22.8542 26.0396C22.0926 25.2779 21.6647 24.2449 21.6647 23.1678C21.6647 22.0906 22.0926 21.0576 22.8542 20.296C23.6159 19.5343 24.6489 19.1064 25.726 19.1064Z" fill="white"/>
</svg>