<svg width="106" height="107" viewBox="0 0 106 107" fill="none" xmlns="http://www.w3.org/2000/svg">
<rect opacity="0.14" x="-0.000488281" y="0.356934" width="106" height="106" rx="30" fill="#486284"/>
<path d="M52.9997 78.4631C49.477 75.4583 46.2118 72.1642 43.2381 68.6151C38.7757 63.2853 33.4766 55.3477 33.4766 47.7839C33.4746 43.921 34.6187 40.1444 36.764 36.9319C38.9092 33.7195 41.9593 31.2156 45.5281 29.7373C49.0969 28.2589 53.0241 27.8725 56.8126 28.6269C60.6011 29.3814 64.0807 31.2427 66.8109 33.9755C68.6287 35.7851 70.0695 37.9374 71.0499 40.3076C72.0304 42.6778 72.531 45.2189 72.5229 47.7839C72.5229 55.3477 67.2237 63.2853 62.7613 68.6151C59.7876 72.1642 56.5224 75.4583 52.9997 78.4631ZM52.9997 39.4168C50.7806 39.4168 48.6524 40.2984 47.0833 41.8675C45.5142 43.4366 44.6326 45.5648 44.6326 47.7839C44.6326 50.003 45.5142 52.1312 47.0833 53.7003C48.6524 55.2694 50.7806 56.151 52.9997 56.151C55.2188 56.151 57.347 55.2694 58.9161 53.7003C60.4852 52.1312 61.3668 50.003 61.3668 47.7839C61.3668 45.5648 60.4852 43.4366 58.9161 41.8675C57.347 40.2984 55.2188 39.4168 52.9997 39.4168Z" fill="#486284"/>
</svg>
