<svg version="1.1" id="Layer_1" xmlns="http://www.w3.org/2000/svg" xmlns:xlink="http://www.w3.org/1999/xlink" x="0px" y="0px"
	 width="100%" viewBox="0 0 1024 1024" enable-background="new 0 0 1024 1024" xml:space="preserve">
<path fill="#000000" opacity="1.000000" stroke="none" 
	d="
M1.000000,1002.468750 
	C5.742932,1001.334351 7.833878,1004.016724 8.059082,1008.189209 
	C8.344103,1013.469910 8.140605,1018.776855 8.073901,1024.536255 
	C5.701266,1025.000000 3.402533,1025.000000 1.000000,1025.000000 
	C1.000000,1017.646057 1.000000,1010.291748 1.000000,1002.468750 
z"/>
<path fill="#000000" opacity="1.000000" stroke="none" 
	d="
M253.626526,124.620682 
	C261.814423,107.970123 276.483490,98.547455 290.700104,88.624878 
	C304.667755,78.876045 320.045898,71.505119 334.459900,62.498264 
	C342.522034,57.460491 351.965729,56.666939 361.191650,55.028770 
	C383.740448,51.025002 405.658020,54.490963 427.518768,59.390648 
	C438.705048,61.897842 449.702972,61.278519 460.612610,58.207607 
	C466.900360,56.437702 473.226685,54.989014 479.766968,54.920399 
	C503.982544,54.666348 528.037964,52.302574 551.784790,47.856224 
	C573.512024,43.788025 594.881042,44.703152 616.258118,49.333046 
	C636.966797,53.818172 658.242004,54.472942 678.970276,58.835300 
	C687.395020,60.608334 695.368652,63.219795 702.311157,68.479500 
	C703.234558,69.179077 704.261658,69.783440 705.318420,70.259262 
	C733.300964,82.858383 755.526794,103.429153 778.554199,122.928482 
	C787.510376,130.512451 795.107544,139.319534 802.826355,148.053085 
	C808.170166,154.099365 815.611328,157.790314 821.064270,163.526443 
	C829.147156,172.028915 837.678040,178.017899 849.775940,180.473297 
	C859.517334,182.450424 869.489136,185.052780 878.959106,188.712723 
	C880.353577,189.251648 882.031677,189.396820 883.143738,190.274841 
	C897.792603,201.841125 914.973328,210.040192 926.176086,226.165268 
	C939.375488,245.164444 953.119385,263.649109 960.829773,285.814209 
	C963.126831,292.417480 961.094360,298.284485 959.374451,304.337708 
	C955.369751,318.432770 955.769348,332.656036 958.812561,346.748627 
	C960.205933,353.201233 959.977356,359.666046 960.688110,366.103485 
	C962.426880,381.850464 966.303101,397.205566 968.711182,412.821747 
	C968.964539,414.464813 969.474915,416.066711 969.774536,417.704468 
	C971.403198,426.606995 971.336975,434.578888 964.508545,442.291473 
	C957.135925,450.618774 955.685913,462.249329 951.685791,472.453186 
	C950.835205,474.622894 950.237549,476.980347 948.971985,478.884918 
	C936.810913,497.186127 938.086731,516.981750 942.293152,537.124451 
	C943.698364,543.853333 942.674011,550.743835 943.883423,557.516235 
	C945.384888,565.924072 948.081665,573.764221 951.474304,581.656067 
	C958.261902,597.445251 962.263489,613.765137 955.856201,631.057861 
	C947.997437,652.268188 939.065369,673.102905 934.467834,695.458618 
	C931.364258,710.549866 922.806702,721.568604 907.771606,727.267700 
	C895.519714,731.911804 887.046875,742.179443 876.750671,749.751221 
	C865.355774,758.130859 854.358582,767.096130 841.962402,774.021240 
	C836.370422,777.145264 833.728394,782.542603 830.646606,787.642029 
	C823.265320,799.855957 817.849060,813.384216 807.113464,823.357544 
	C800.473816,829.525757 791.833801,832.729736 784.638611,838.148132 
	C778.997559,842.396179 774.442810,847.142639 772.925354,854.275635 
	C772.246948,857.464233 770.178528,859.904114 768.364197,862.511536 
	C760.622864,873.636292 750.859558,882.180847 738.867676,888.771545 
	C724.141235,896.864990 711.187256,907.799500 697.100952,916.990845 
	C691.251038,920.807983 687.514526,927.491333 681.789612,931.926636 
	C677.658630,935.127075 673.400513,936.869080 668.130310,937.176453 
	C661.513611,937.562256 654.895142,938.524048 648.372009,939.743164 
	C641.679749,940.994019 637.436157,945.734985 638.115967,952.478821 
	C639.165588,962.889771 633.207703,967.601685 625.115479,971.355103 
	C616.198853,975.490845 606.747742,977.118835 597.058533,977.954895 
	C580.788391,979.358704 564.565674,979.510132 548.240051,978.269043 
	C531.077881,976.964478 513.969727,979.028198 496.952911,981.347412 
	C485.361206,982.927246 473.779449,983.726624 462.099426,982.305786 
	C450.729645,980.922791 439.289215,981.914001 428.330444,984.434875 
	C408.422729,989.014282 389.266876,985.296875 369.959381,981.491211 
	C363.420532,980.202271 356.875763,978.936523 350.312775,977.778503 
	C341.445007,976.213684 333.594116,972.433655 326.145386,967.472900 
	C310.972076,957.367615 293.911560,950.860107 277.800201,942.537598 
	C271.713989,939.393738 265.733856,936.178833 260.402130,931.831055 
	C250.725098,923.939758 246.565292,913.389465 243.678436,901.469238 
	C240.319061,887.597961 235.213211,874.081665 228.188293,861.539062 
	C225.646957,857.001648 223.827698,852.198792 221.516632,847.593384 
	C213.961105,832.537292 202.290634,820.469971 192.582336,806.980347 
	C185.938721,797.749084 178.751785,789.075684 170.200699,781.567993 
	C161.663834,774.072754 155.404388,764.935913 150.694641,754.672302 
	C142.958466,737.813232 130.952682,723.451111 122.797287,706.816040 
	C118.231094,697.502075 116.029007,688.146729 118.846802,677.860901 
	C119.940407,673.868958 120.352798,669.672363 120.867050,665.543030 
	C122.624352,651.432007 114.985611,640.665344 106.845169,630.884338 
	C98.190651,620.485657 89.921783,609.821106 82.625839,598.539917 
	C74.263977,585.610535 75.068100,571.506042 81.572891,557.951416 
	C84.501167,551.849548 88.447701,546.213867 92.393898,540.611694 
	C100.542664,529.043579 102.626274,515.448669 101.360397,501.941620 
	C99.711655,484.349396 99.646355,467.021637 103.355919,449.766449 
	C104.937057,442.411713 104.602585,434.842621 106.481750,427.522156 
	C108.314346,420.383087 110.492012,413.431519 114.030678,406.936066 
	C118.255417,399.181335 117.962418,390.704712 118.485275,382.192108 
	C119.409767,367.140411 111.223457,355.129242 106.385674,342.010345 
	C103.509583,334.211090 101.672791,326.433228 102.968979,318.099091 
	C105.116920,304.288330 106.288208,290.254761 113.124916,277.603729 
	C128.402374,249.333588 149.269485,226.213745 176.389954,208.873444 
	C186.775696,202.233002 198.012009,196.683212 207.221146,188.512634 
	C219.077194,177.993683 232.232819,168.603928 240.769958,154.759018 
	C244.035461,149.463242 245.387985,143.347305 247.523178,137.578552 
	C249.151321,133.179779 250.906265,128.890671 253.626526,124.620682 
M262.345978,715.161194 
	C285.688507,741.318359 312.046051,763.766602 342.422760,781.505432 
	C356.405090,789.670593 371.047424,796.435364 385.455414,803.710388 
	C387.349182,804.666565 390.307312,805.465271 389.694794,807.956970 
	C388.162231,814.191162 391.368195,819.098206 393.721832,824.077271 
	C400.717468,838.876282 410.145172,851.272278 426.381775,857.345215 
	C437.747131,861.596130 449.323914,865.195801 460.653076,869.635864 
	C489.347382,880.881653 519.233582,882.256836 549.652344,877.434387 
	C571.654297,873.946411 591.774353,865.257202 612.088684,856.925049 
	C615.802063,855.401917 618.981567,853.017761 622.174255,850.544739 
	C629.425293,844.928223 635.614136,837.857178 643.141663,832.880798 
	C660.782288,821.218506 676.709656,806.949524 695.532959,797.203796 
	C707.792480,790.856384 718.311279,781.104553 732.635803,778.540222 
	C737.079041,777.744812 742.322632,776.897705 745.393066,772.430847 
	C748.928162,767.288330 752.005920,762.051270 751.125427,755.362854 
	C750.707520,752.189087 751.449341,749.049805 752.748108,746.101379 
	C754.778564,741.492004 753.508728,737.354004 750.952576,733.420532 
	C748.360046,729.430908 745.038086,732.065918 741.955872,732.473206 
	C741.760132,732.499084 741.508911,732.104858 740.858337,731.531006 
	C751.385315,719.969971 761.892456,708.430725 772.399658,696.891479 
	C771.379517,701.095642 768.285522,703.722900 765.988831,706.921021 
	C765.029541,708.256836 763.599243,709.530151 764.708923,711.359619 
	C765.885315,713.299194 767.789001,712.883423 769.642090,712.612488 
	C773.170593,712.096436 775.701233,710.218384 777.781494,707.370239 
	C780.127808,704.157898 782.439453,700.602722 786.758423,699.903320 
	C792.369446,698.994751 795.483276,695.706726 797.320007,690.549194 
	C799.516785,684.380493 803.628845,680.914185 810.654358,682.013367 
	C814.528625,682.619568 817.502869,680.937561 819.539307,677.698120 
	C824.054138,670.516541 828.429932,663.420288 830.280090,654.801819 
	C832.699707,643.530457 838.657593,635.116455 851.341431,633.056580 
	C862.740234,631.205505 869.973877,624.056213 873.444336,613.104553 
	C874.961243,608.317627 876.857849,603.700806 879.436584,599.392151 
	C883.588928,592.454163 886.141846,584.925842 888.088196,577.121704 
	C891.030518,565.323547 893.717651,553.436890 897.285156,541.825073 
	C903.275940,522.325745 906.022156,502.497650 904.858398,482.160767 
	C904.460083,475.199890 904.494446,468.029785 901.540405,461.546265 
	C897.401123,452.461517 894.087585,442.994690 888.799561,434.426331 
	C883.817444,426.353882 879.614197,417.952728 876.150879,409.007843 
	C871.611755,397.284515 863.320679,387.673889 854.921570,378.373383 
	C852.346680,375.522156 848.959351,374.938141 845.847168,376.910248 
	C840.509766,380.292511 835.220154,383.910431 833.016479,390.378082 
	C832.599365,391.602173 832.314453,393.025879 830.409241,393.267822 
	C830.027710,392.933075 829.413940,392.589386 829.090210,392.066132 
	C828.570068,391.225281 828.181763,390.287598 827.841248,389.353149 
	C822.026367,373.397705 815.636475,357.728882 808.044617,342.479980 
	C793.994019,314.258209 776.755127,288.093842 756.246765,264.380493 
	C722.270813,225.094986 680.854004,195.650665 632.760742,175.732925 
	C600.790405,162.492462 567.407715,155.348389 533.065491,152.269913 
	C522.222351,151.297928 511.566406,149.594971 501.582916,145.012177 
	C495.240784,142.100891 495.072418,141.414261 498.769562,135.588684 
	C499.924072,133.769501 500.412537,131.895432 499.461334,129.927704 
	C498.584137,128.113068 496.837952,128.039825 495.124756,128.321884 
	C479.952179,130.819809 464.627747,130.736542 449.324890,131.132080 
	C435.531097,131.488617 422.155151,141.509277 417.724548,154.547195 
	C417.291626,155.821136 416.846436,157.112762 414.594147,156.974289 
	C416.407928,147.613007 408.678131,144.929672 403.075592,140.686722 
	C400.557526,138.779709 397.814484,137.125015 395.504211,134.996811 
	C388.983521,128.989929 386.716064,128.679626 378.630890,132.594666 
	C372.322418,135.649429 367.266235,140.795715 360.566162,143.161224 
	C353.545624,145.639877 347.276733,149.592667 341.912781,154.566788 
	C330.798431,164.873398 317.883087,172.833572 306.628693,183.085587 
	C294.595856,194.046707 281.255615,203.633972 271.767273,217.061447 
	C264.830872,226.877441 263.974548,233.653656 270.773834,240.367584 
	C276.672638,246.192322 276.510742,250.410446 270.796204,256.985077 
	C265.118591,263.517212 259.512543,270.093536 254.160934,276.917145 
	C250.096237,282.099823 245.941360,287.789246 238.752228,289.470917 
	C238.660416,295.348694 237.747650,296.260681 231.930618,296.466553 
	C231.172409,296.493408 230.066071,296.786530 229.740250,297.328552 
	C227.148575,301.640045 223.168747,305.326263 224.651505,311.329559 
	C225.750534,315.779297 224.737320,320.086853 222.513611,324.317200 
	C217.013901,334.779663 211.809814,345.402496 206.699860,356.062897 
	C203.982742,361.731323 201.708405,367.611969 199.066223,373.789551 
	C204.256500,375.329437 204.136520,379.076355 204.025421,383.098145 
	C203.906677,387.397339 201.204422,389.896820 198.720535,392.873505 
	C184.810059,409.543549 165.095856,422.247955 161.856918,446.288330 
	C161.792099,446.769531 161.459976,447.208435 161.330063,447.688080 
	C158.773376,457.127045 157.138275,466.541656 161.327759,476.014191 
	C163.143570,480.119812 163.336456,484.413513 161.814484,488.701508 
	C160.073898,493.605408 160.683945,498.275146 161.884155,503.341644 
	C163.232513,509.033508 166.712952,513.909607 167.167480,519.883362 
	C168.616913,538.933777 169.719254,558.016174 172.328796,576.967285 
	C173.403763,584.773804 173.431824,585.082092 181.026764,586.293945 
	C182.987000,586.606689 185.013672,586.730835 186.994690,586.633484 
	C190.195267,586.476135 191.977158,587.827820 192.684067,590.941833 
	C193.124557,592.882385 193.884583,594.749634 194.487213,596.654175 
	C201.595337,619.118408 211.067413,640.490112 223.403168,660.614990 
	C227.578232,667.426331 231.749863,674.214172 236.252197,680.819031 
	C244.230103,692.522583 252.459869,704.018005 262.345978,715.161194 
z"/>
<path fill="#000000" opacity="1.000000" stroke="none" 
	d="
M587.004028,642.873657 
	C544.351257,642.880371 502.197388,642.943848 460.043732,642.872437 
	C433.740845,642.827881 407.434113,642.215210 381.136688,642.517700 
	C350.163239,642.873840 319.196716,642.015625 288.217773,642.612610 
	C273.752655,642.891296 259.234650,642.384094 244.742386,642.484314 
	C240.918701,642.510742 239.428253,640.080933 238.001114,637.498352 
	C230.984283,624.800476 225.390121,611.433350 219.655838,598.130981 
	C216.510437,590.834229 213.150375,583.629272 210.887115,574.652222 
	C216.486832,574.652222 221.397171,574.420959 226.274841,574.721008 
	C230.641129,574.989624 231.961685,573.534241 231.897842,569.043152 
	C231.677139,553.520386 233.734756,538.246643 237.742599,523.206116 
	C241.174362,510.327423 249.774429,501.796112 260.885773,495.728973 
	C286.059906,481.983124 311.986145,482.358002 337.734406,493.752869 
	C352.804810,500.422211 361.462341,513.153992 366.334167,528.592834 
	C370.653961,542.282288 373.277588,556.298096 373.925507,570.635803 
	C374.097778,574.447144 375.358643,575.896057 379.310822,575.696777 
	C417.425446,573.774902 455.576141,573.741577 493.726471,573.494873 
	C501.025085,573.447632 508.360657,572.729004 515.683838,572.754089 
	C519.288940,572.766418 520.675293,571.400818 520.952637,567.841125 
	C521.623413,559.231934 521.332703,558.997742 512.113586,559.457153 
	C471.693359,561.471191 431.272095,563.509644 390.781830,563.370361 
	C389.282135,563.365234 387.781342,563.351379 386.283264,563.289246 
	C384.938568,563.233643 383.480988,563.191528 383.142426,561.487488 
	C382.801331,559.770630 382.941559,558.076111 384.704712,557.133423 
	C386.020996,556.429626 387.422729,555.865479 388.826874,555.349304 
	C413.433899,546.303650 438.906372,540.715454 464.741180,536.733093 
	C483.777222,533.798828 502.863434,531.164368 522.076599,529.589722 
	C524.576294,529.384888 526.162048,528.352234 526.729980,525.395020 
	C531.119690,502.538361 536.143677,479.823700 541.540771,457.174438 
	C546.233093,437.482910 549.368164,417.419281 556.266846,397.831787 
	C545.949402,396.337219 536.180725,397.798309 526.458740,399.862671 
	C488.818207,407.855377 455.856750,425.277863 426.553009,449.868469 
	C420.687592,454.790466 414.831696,459.694916 408.743500,464.338837 
	C404.632782,467.474335 400.339600,469.703369 394.976196,469.112366 
	C393.472961,468.946747 391.898193,468.955231 390.993713,470.520416 
	C389.914459,472.388092 391.674896,473.132355 392.532379,474.251495 
	C396.052643,478.846130 397.978027,483.512024 397.445618,489.840118 
	C396.526733,500.761932 397.083893,511.810608 397.094513,522.806030 
	C397.097168,525.555176 398.054871,528.129089 399.892700,530.140503 
	C402.432465,532.920105 401.226410,534.558167 398.489166,535.843323 
	C393.241760,538.306946 387.960602,540.698608 382.459808,543.227539 
	C380.890472,538.115845 379.438049,533.236145 377.895294,528.385132 
	C370.639252,505.569214 354.719208,492.149658 332.410767,484.520203 
	C301.117218,473.817810 272.203979,477.511963 245.069031,496.204132 
	C240.445404,499.389191 237.615692,504.239929 233.883972,508.253174 
	C230.142609,512.276855 220.876801,513.377258 215.316772,509.847534 
	C222.391907,503.485626 231.073502,499.377838 236.998306,491.961700 
	C225.207397,495.742126 215.232285,502.677246 204.877701,509.592010 
	C213.285461,513.501038 221.973907,513.004883 230.718750,513.764648 
	C229.115860,523.266724 227.564423,532.518982 225.990936,541.767517 
	C225.239166,546.186218 224.166473,550.564270 224.333893,555.094910 
	C224.447876,558.179443 223.286819,559.937744 219.992554,560.662781 
	C211.897247,562.444580 203.881241,564.586670 195.952774,566.554199 
	C194.161240,565.115601 194.641846,563.315002 194.740234,561.766541 
	C195.914597,543.283569 195.386078,524.778259 194.455612,506.339355 
	C193.944931,496.219574 196.874237,490.668365 206.513092,486.330780 
	C238.454300,471.956940 270.634857,458.486725 305.257629,452.069611 
	C316.017181,450.075409 326.986481,449.144135 337.890778,448.029785 
	C343.175873,447.489685 348.353821,452.127899 349.572937,459.062317 
	C350.548553,464.611633 353.551178,467.121246 358.621674,468.182526 
	C363.676331,469.240509 368.660797,470.669952 373.742554,471.554291 
	C382.367157,473.055145 386.203979,469.604309 385.821320,460.998169 
	C385.660736,457.386993 388.174347,455.236298 390.214874,452.899445 
	C403.329803,437.879883 418.663849,425.383087 434.872528,413.900635 
	C457.685242,397.739838 481.745087,383.882965 508.765839,376.072418 
	C525.997192,371.091583 543.585632,367.769562 561.580750,366.466797 
	C589.831482,364.421539 617.823425,365.849457 645.266846,372.784058 
	C670.279663,379.104462 693.773315,389.235809 714.872681,404.417999 
	C722.033203,409.570435 730.325806,411.514008 738.904602,411.566315 
	C754.060608,411.658813 769.230225,412.120392 784.379822,411.125122 
	C785.707336,411.037903 787.046814,411.068115 788.378235,411.114929 
	C797.350891,411.430511 800.880798,415.972961 798.735168,424.699158 
	C797.744324,428.728790 796.613159,432.756226 795.131287,436.625946 
	C792.242920,444.168091 791.797729,451.457764 793.921204,459.506287 
	C799.144043,479.301605 798.588989,499.324707 793.993652,519.239502 
	C791.976074,527.983032 789.721558,536.676025 787.910034,545.461121 
	C787.171936,549.040527 784.996948,549.107971 782.174622,549.434937 
	C779.055298,549.796448 777.637329,548.694275 776.777100,545.841736 
	C774.519409,538.355286 772.092102,530.919861 769.713013,523.470276 
	C766.287109,512.742554 761.325989,502.746918 754.413330,493.880219 
	C744.451050,481.101746 731.056824,473.632355 715.249878,470.920288 
	C688.809021,466.383636 664.061646,470.476349 642.791016,487.828827 
	C631.211670,497.275238 626.024719,510.759888 622.413574,524.812988 
	C620.332214,532.912781 619.784241,541.233826 620.257874,549.566406 
	C620.491760,553.681641 618.918518,555.179443 614.869080,555.329712 
	C589.909546,556.256653 564.955750,557.339539 540.000916,558.389771 
	C538.007080,558.473694 536.011292,558.636169 534.030212,558.875854 
	C526.431030,559.795166 524.713196,562.423706 526.397278,569.990295 
	C527.013123,572.757385 528.976135,572.672974 530.980652,572.674072 
	C539.480103,572.678650 548.009094,573.088745 556.473083,572.529602 
	C577.108948,571.166382 597.789429,572.374390 618.419922,571.068848 
	C626.643494,570.548462 626.570374,570.734741 626.610901,562.674988 
	C626.672668,550.380493 626.313782,538.112122 629.492859,525.980713 
	C636.728455,498.369629 654.579651,483.131744 682.458496,478.596344 
	C694.282654,476.672760 705.877136,476.835724 717.621643,479.020782 
	C739.468811,483.085510 751.789978,497.641022 759.984375,516.823975 
	C765.416809,529.541138 768.130188,542.873352 767.237915,556.703369 
	C766.887024,562.142090 768.915344,564.307556 774.029724,564.393982 
	C778.191101,564.464233 782.364929,564.459412 786.506592,564.805847 
	C789.299500,565.039368 792.108887,565.800903 790.397888,569.776184 
	C782.694763,587.673340 778.334045,606.802612 770.208069,624.541870 
	C768.197083,628.931885 765.919128,633.207642 764.083801,637.667542 
	C762.611511,641.245300 760.405518,642.448120 756.466370,642.428406 
	C727.302429,642.282593 698.137085,642.350586 668.972412,642.442261 
	C641.815735,642.527649 614.659424,642.725220 587.004028,642.873657 
M747.423828,559.122253 
	C746.182434,554.237671 743.874329,549.791870 741.539185,545.392029 
	C731.532532,526.537964 707.771362,514.136780 687.076477,517.552734 
	C663.450562,521.452393 648.005859,535.854980 640.718628,558.033447 
	C633.874512,578.863098 638.724487,598.007935 654.553345,613.440430 
	C667.243591,625.812927 682.495544,633.088501 700.667664,629.505188 
	C730.363037,623.649414 757.107117,595.124695 747.423828,559.122253 
M339.587646,618.108032 
	C354.928223,602.446350 361.322723,584.583191 354.800446,562.663574 
	C345.658936,531.941467 311.692596,515.165527 282.934265,527.463379 
	C251.216766,541.026550 236.388931,585.257202 264.671143,615.239868 
	C285.946167,637.793945 318.920471,639.664551 339.587646,618.108032 
M664.036682,399.498199 
	C634.370178,392.614258 604.378113,392.190857 574.207458,394.816742 
	C571.128113,395.084747 569.405762,395.949249 568.581116,399.121246 
	C564.609314,414.398285 560.442444,429.624603 556.360840,444.873199 
	C555.680298,447.415741 554.957458,449.915863 553.045410,451.775726 
	C551.178894,451.422058 550.399658,449.181549 548.201965,449.949524 
	C546.624390,451.166565 546.494568,453.219666 546.059021,455.145569 
	C543.454224,466.665405 540.863525,478.188538 538.221130,489.699738 
	C536.701050,496.321686 541.542908,502.174194 548.315125,501.811096 
	C556.175110,501.389679 559.662354,503.798248 561.775696,511.108093 
	C563.723999,517.846863 566.652039,519.043396 573.320374,516.425232 
	C590.734802,509.587891 597.179749,494.853119 600.788696,478.242737 
	C602.903992,468.506775 598.762268,458.549713 601.689697,448.576752 
	C602.913635,444.407043 604.231079,441.841949 608.459717,441.495178 
	C614.456726,441.003387 620.230774,439.587158 626.072510,438.228455 
	C650.346802,432.582550 675.122498,429.237518 699.153442,422.475250 
	C703.437683,421.269684 708.097168,420.526215 712.519409,416.470642 
	C696.690002,408.615692 680.791138,404.090942 664.036682,399.498199 
z"/>
<path fill="#000000" opacity="1.000000" stroke="none" 
	d="
M345.206482,255.161850 
	C361.875946,242.300400 378.861450,230.569641 397.901428,222.236130 
	C421.599701,211.863785 446.171295,204.424072 471.829163,200.563339 
	C487.519409,198.202423 503.254181,197.182388 519.068542,197.729233 
	C557.759277,199.067139 594.683228,207.406677 629.709045,224.476685 
	C668.880737,243.567245 701.153564,270.721283 727.126953,305.407074 
	C743.786499,327.654755 756.919250,351.926971 765.598022,378.460754 
	C765.701477,378.776978 765.858459,379.076630 765.950378,379.395569 
	C768.126282,386.944427 768.139526,387.131897 760.422729,387.717255 
	C753.786316,388.220703 747.106079,388.122375 740.458008,388.509338 
	C737.397888,388.687408 736.835693,386.416748 736.138489,384.526062 
	C730.977051,370.528717 723.366272,357.829834 715.732727,345.109344 
	C693.989502,308.876892 664.519836,280.613464 628.060913,259.464905 
	C603.191589,245.039093 576.641113,235.128174 548.249207,230.644562 
	C528.476135,227.522034 508.568573,227.543671 488.552734,229.015625 
	C460.599823,231.071274 434.263275,238.502945 409.056366,250.397797 
	C386.129150,261.216919 365.622437,275.562836 347.212646,292.977386 
	C331.180756,308.142578 316.633057,324.589508 304.809326,343.237915 
	C296.432617,356.449768 289.159637,370.325043 282.512634,384.506805 
	C281.523621,386.616882 280.259766,388.611206 279.413544,390.772797 
	C276.890381,397.217926 270.921417,396.917267 265.749908,398.750885 
	C264.760437,395.480865 269.117432,391.704529 263.795319,390.229858 
	C260.937622,389.438080 258.078583,388.651184 254.814194,387.750031 
	C270.014191,333.254059 301.114502,290.010468 345.206482,255.161850 
z"/>
<path fill="#000000" opacity="1.000000" stroke="none" 
	d="
M565.718750,770.127563 
	C548.962463,772.570557 532.559692,773.470764 516.047668,773.462830 
	C471.105316,773.441406 429.128021,762.613098 390.227081,739.996399 
	C356.717346,720.514160 326.803436,696.556763 300.433014,668.158203 
	C297.600006,665.107361 294.648315,662.165222 291.860321,659.074646 
	C290.569397,657.643616 288.814545,656.383362 289.000793,653.790894 
	C289.414246,653.532776 289.939819,652.918762 290.464417,652.919617 
	C299.953522,652.935120 309.444366,652.937622 318.930664,653.139404 
	C322.974365,653.225403 325.492615,656.190674 327.917084,658.928650 
	C338.556458,670.943848 350.433105,681.672852 363.117188,691.397095 
	C395.546326,716.258972 431.558624,733.685486 471.813293,741.620850 
	C520.275024,751.173950 566.377502,742.943115 610.504395,721.971802 
	C641.532349,707.225769 667.579102,686.005127 689.151062,659.308838 
	C692.849976,654.731201 696.995117,652.100098 703.221558,652.596802 
	C709.841309,653.124939 716.521484,652.547913 723.158997,653.569092 
	C727.175110,654.187012 727.495544,655.602600 725.393738,658.775635 
	C703.513306,691.807007 677.290588,720.494141 642.699768,740.603821 
	C618.796204,754.500244 593.301331,764.489868 565.718750,770.127563 
z"/>
</svg>