<svg width="106" height="107" viewBox="0 0 106 107" fill="none" xmlns="http://www.w3.org/2000/svg">
<rect opacity="0.14" x="-0.000488281" y="0.356934" width="106" height="106" rx="30" fill="#486284"/>
<g clip-path="url(#clip0_0_1)">
<path fill-rule="evenodd" clip-rule="evenodd" d="M36.902 39.6216C37.4687 38.2435 38.411 37.0692 39.612 36.2444C40.8131 35.4196 42.22 34.9806 43.6583 34.9819H62.3466C65.2841 34.9819 67.9396 36.8072 69.097 39.6216L71.4235 45.2811C71.6438 45.8171 72.0404 46.2581 72.5398 46.5184C74.0085 47.284 75.0513 48.7081 75.3744 50.3832L76.3585 55.5252C76.4554 56.0182 76.5024 56.5205 76.5024 57.0258V58.2906C76.5024 60.7835 75.3568 63.0161 73.5649 64.4064V70.2007C73.5649 70.6068 73.4102 70.9963 73.1348 71.2834C72.8593 71.5706 72.4857 71.7319 72.0962 71.7319H66.2212C65.8317 71.7319 65.4581 71.5706 65.1826 71.2834C64.9072 70.9963 64.7524 70.6068 64.7524 70.2007V66.1031C60.9572 66.2501 56.689 66.3726 53.0024 66.3726C49.3159 66.3726 45.0477 66.2501 41.2524 66.1031V70.2007C41.2524 70.6068 41.0977 70.9963 40.8223 71.2834C40.5468 71.5706 40.1732 71.7319 39.7837 71.7319H33.9087C33.5192 71.7319 33.1456 71.5706 32.8701 71.2834C32.5947 70.9963 32.4399 70.6068 32.4399 70.2007V64.4064C30.6481 63.0161 29.5024 60.7835 29.5024 58.2906V57.0258C29.5029 56.5219 29.5511 56.0192 29.6464 55.5252L30.6304 50.3802C30.9536 48.7081 31.9964 47.2809 33.4622 46.5184C33.9639 46.257 34.3605 45.8186 34.5814 45.2811L36.9079 39.6216H36.902ZM38.312 59.4819C39.0911 59.4819 39.8382 59.1593 40.3891 58.5849C40.94 58.0106 41.2495 57.2317 41.2495 56.4194C41.2495 55.6072 40.94 54.8283 40.3891 54.2539C39.8382 53.6796 39.0911 53.3569 38.312 53.3569C37.5329 53.3569 36.7858 53.6796 36.2349 54.2539C35.684 54.8283 35.3745 55.6072 35.3745 56.4194C35.3745 57.2317 35.684 58.0106 36.2349 58.5849C36.7858 59.1593 37.5329 59.4819 38.312 59.4819ZM67.687 59.4819C68.4661 59.4819 69.2132 59.1593 69.7641 58.5849C70.315 58.0106 70.6245 57.2317 70.6245 56.4194C70.6245 55.6072 70.315 54.8283 69.7641 54.2539C69.2132 53.6796 68.4661 53.3569 67.687 53.3569C66.9079 53.3569 66.1608 53.6796 65.6099 54.2539C65.059 54.8283 64.7495 55.6072 64.7495 56.4194C64.7495 57.2317 65.059 58.0106 65.6099 58.5849C66.1608 59.1593 66.9079 59.4819 67.687 59.4819ZM47.1245 53.3569C46.3454 53.3569 45.5983 53.6796 45.0474 54.2539C44.4965 54.8283 44.187 55.6072 44.187 56.4194C44.187 57.2317 44.4965 58.0106 45.0474 58.5849C45.5983 59.1593 46.3454 59.4819 47.1245 59.4819H58.8745C59.6536 59.4819 60.4007 59.1593 60.9516 58.5849C61.5025 58.0106 61.812 57.2317 61.812 56.4194C61.812 55.6072 61.5025 54.8283 60.9516 54.2539C60.4007 53.6796 59.6536 53.3569 58.8745 53.3569H47.1245ZM38.0359 44.7482L40.8441 38.8897C40.9662 38.6357 41.1537 38.4221 41.3856 38.2728C41.6175 38.1235 41.8847 38.0444 42.1572 38.0444H63.8418C64.1144 38.0444 64.3815 38.1235 64.6134 38.2728C64.8453 38.4221 65.0328 38.6357 65.1549 38.8897L67.9631 44.7482C68.0779 44.9953 68.1283 45.2694 68.1091 45.5432C68.09 45.8169 68.0019 46.0806 67.8539 46.3076C67.7059 46.5346 67.5031 46.7169 67.2659 46.8361C67.0288 46.9554 66.7657 47.0074 66.5032 46.9869C63.8301 46.7634 56.6626 46.4663 52.9995 46.4663C49.3364 46.4663 42.166 46.7634 39.4958 46.9869C39.2333 47.0074 38.9702 46.9554 38.7331 46.8361C38.4959 46.7169 38.2931 46.5346 38.1451 46.3076C37.9971 46.0806 37.9091 45.8169 37.8899 45.5432C37.8707 45.2694 37.9211 44.9953 38.0359 44.7482Z" fill="#486284"/>
</g>
<defs>
<clipPath id="clip0_0_1">
<rect width="47" height="49" fill="white" transform="translate(29.4995 28.8569)"/>
</clipPath>
</defs>
</svg>
